<svg width="34" height="34" viewBox="0 0 34 34" fill="none" xmlns="http://www.w3.org/2000/svg">
<circle cx="17" cy="17" r="17" fill="#7BE495"/>
<path fill-rule="evenodd" clip-rule="evenodd" d="M15.4381 12.7497C15.2881 12.4162 15.1302 12.4095 14.9875 12.4037C14.8707 12.3987 14.7371 12.399 14.6037 12.399C14.4701 12.399 14.2532 12.4492 14.0697 12.6496C13.8861 12.85 13.3687 13.3344 13.3687 14.3197C13.3687 15.3051 14.0864 16.2572 14.1864 16.3909C14.2865 16.5245 15.5719 18.611 17.6074 19.4138C19.2991 20.0809 19.6434 19.9482 20.0106 19.9148C20.3778 19.8814 21.1954 19.4305 21.3623 18.9628C21.5293 18.4952 21.5293 18.0945 21.4792 18.0107C21.4291 17.9272 21.2956 17.8772 21.0953 17.777C20.895 17.6769 19.9104 17.1923 19.7268 17.1255C19.5432 17.0588 19.4097 17.0254 19.2762 17.2259C19.1427 17.4262 18.7591 17.8772 18.6422 18.0107C18.5254 18.1445 18.4086 18.1612 18.2083 18.0611C18.008 17.9606 17.363 17.7494 16.5978 17.0671C16.0025 16.5363 15.6005 15.8808 15.4837 15.6803C15.3669 15.48 15.4712 15.3715 15.5716 15.2717C15.6616 15.182 15.7719 15.0379 15.8721 14.921C15.972 14.804 16.0054 14.7206 16.0722 14.587C16.1389 14.4533 16.1055 14.3364 16.0555 14.2362C16.0054 14.1361 15.6162 13.1457 15.4381 12.7497V12.7497Z" fill="white"/>
<path d="M23.1108 10.4372C21.5975 8.92279 19.5852 8.08835 17.4413 8.0874C13.0233 8.0874 9.42795 11.6816 9.42617 16.0993C9.42565 17.5115 9.79463 18.89 10.496 20.1051L9.35889 24.2569L13.6078 23.1428C14.7784 23.7812 16.0965 24.1177 17.4378 24.1182H17.4412H17.4413C21.8585 24.1182 25.4543 20.5234 25.4562 16.1058C25.457 13.9648 24.624 11.9517 23.1108 10.4372V10.4372ZM17.4413 22.765H17.4387C16.2431 22.7643 15.0706 22.4434 14.048 21.8365L13.8046 21.6923L11.2832 22.3533L11.9564 19.8959L11.7978 19.644C11.1309 18.5836 10.7789 17.3582 10.7794 16.0999C10.7808 12.428 13.7691 9.44073 17.4438 9.44073C19.2232 9.44146 20.8957 10.1351 22.1535 11.3938C23.4113 12.6525 24.1034 14.3257 24.1029 16.1053C24.1013 19.7773 21.1129 22.765 17.4413 22.765Z" fill="white"/>
</svg>
